<svg width="38" height="36" viewBox="0 0 38 36" fill="none" xmlns="http://www.w3.org/2000/svg">
<path d="M22.325 18.0745L37.2875 4.1079C38.2375 3.22113 38.2375 1.89098 37.2875 1.00422C36.3375 0.11745 34.9125 0.11745 33.9625 1.00422L19 14.9708L4.0375 1.00422C3.0875 0.11745 1.6625 0.11745 0.7125 1.00422C-0.2375 1.89098 -0.2375 3.22113 0.7125 4.1079L15.675 18.0745L0.7125 32.0411C0.2375 32.4844 0 32.9278 0 33.5929C0 34.9231 0.95 35.8098 2.375 35.8098C3.0875 35.8098 3.5625 35.5881 4.0375 35.1447L19 21.1782L33.9625 35.1447C34.4375 35.5881 34.9125 35.8098 35.625 35.8098C36.3375 35.8098 36.8125 35.5881 37.2875 35.1447C38.2375 34.258 38.2375 32.9278 37.2875 32.0411L22.325 18.0745Z" fill="black"/>
</svg>
