<svg width="80" height="80" viewBox="0 0 80 80" fill="none" xmlns="http://www.w3.org/2000/svg">
<circle cx="40" cy="40" r="40" fill="#E067C3" fill-opacity="0.1"/>
<path d="M22.3569 46.621V46.661L18.8769 47.071V48.101L22.3569 48.521V48.551C22.3569 48.691 22.4569 48.811 22.5969 48.841L24.8569 49.231V45.941L22.5969 46.341C22.4569 46.361 22.3569 46.481 22.3569 46.621ZM52.6747 43.1285H51.2117L27.6451 44.6874C27.2017 44.7145 26.8559 45.082 26.8559 45.5263V49.6501C26.8559 50.0944 27.2017 50.4619 27.6451 50.489L51.2117 52.0479H52.6747C53.1389 52.0479 53.5151 51.6716 53.5151 51.2075V43.9689C53.5151 43.5048 53.1389 43.1285 52.6747 43.1285ZM24.907 30.2927C25.8216 29.9291 26.7601 29.641 27.7117 29.4592C29.6298 29.0982 31.5469 29.2329 33.3075 29.813C35.0837 30.3912 36.7056 31.4677 37.8061 33.1805C37.8214 33.2031 37.8503 33.2167 37.8787 33.2103C37.9155 33.202 37.9385 33.1653 37.9302 33.1285C37.5118 31.0616 35.7601 29.3637 33.7784 28.5515C31.7497 27.6827 29.464 27.8699 27.4729 28.409C26.4597 28.6739 25.4862 29.0472 24.5561 29.4911C23.626 29.9559 22.7801 30.3866 21.8346 30.7231C19.9845 31.4598 18.0075 31.7769 16 32.002C18.0215 32.2255 20.0715 31.8909 22.0458 31.3623C23.0233 31.0895 24.0084 30.6697 24.907 30.2927ZM27.6119 40.687C27.8811 39.6906 28.1235 38.6942 28.3389 37.6844C28.7429 37.7517 29.1334 37.7921 29.5373 37.8055C29.5911 38.8289 29.6719 39.8522 29.7931 40.862C29.9008 39.8522 29.9816 38.8289 30.0355 37.8055C30.4394 37.7921 30.8298 37.7517 31.2338 37.6978C31.4492 38.7076 31.6916 39.704 31.9609 40.687C31.9205 39.6636 31.8397 38.6268 31.732 37.6036C32.1224 37.5228 32.5129 37.4286 32.8899 37.2939C33.2535 38.2634 33.6574 39.2328 34.0883 40.1888C33.8728 39.1655 33.6439 38.1422 33.3746 37.1323C33.7382 36.9842 34.1017 36.8092 34.4518 36.6207C34.9904 37.5497 35.5559 38.4653 36.1348 39.354C35.7579 38.3307 35.3405 37.3343 34.9096 36.338C35.2462 36.1359 35.5559 35.9071 35.8521 35.6378C36.5657 36.4995 37.3063 37.3478 38.0469 38.1826C37.4947 37.1862 36.9023 36.2167 36.283 35.2608C36.6196 34.9511 36.9427 34.601 37.2255 34.224C34.8961 35.9744 32.3648 36.8092 29.7931 36.8092C27.2079 36.8092 24.6766 35.9744 22.3472 34.224C22.63 34.601 22.9531 34.9511 23.2897 35.2473C22.6703 36.2033 22.0914 37.1862 21.5259 38.1826C22.2664 37.3478 23.0069 36.4995 23.7206 35.6378C24.0168 35.8936 24.3399 36.1225 24.6631 36.3245C24.2323 37.3208 23.8149 38.3307 23.4379 39.354C24.0303 38.4518 24.5958 37.5362 25.1344 36.5938C25.471 36.7957 25.8345 36.9708 26.2115 37.1189C25.9288 38.1287 25.6999 39.152 25.4845 40.1888C25.9153 39.2328 26.3193 38.2499 26.6828 37.2804C27.0598 37.4151 27.4503 37.5228 27.8408 37.6037C27.733 38.6268 27.6657 39.6636 27.6119 40.687Z" fill="#E067C3"/>
<path d="M22.7388 33.2118C24.4274 34.8254 27.1233 35.6666 29.7876 35.6675C32.4521 35.6681 35.1501 34.8264 36.8364 33.2118C34.6301 34.4168 32.226 34.985 29.7876 34.9858C27.3491 34.9865 24.9436 34.4181 22.7388 33.2118ZM55.4439 29.4911C54.5138 29.0472 53.5403 28.6739 52.5271 28.409C50.5359 27.8699 48.2503 27.6827 46.2216 28.5515C44.2399 29.3637 42.4881 31.0616 42.0698 33.1285C42.0615 33.1653 42.0845 33.202 42.1213 33.2103C42.1496 33.2167 42.1786 33.2031 42.1939 33.1805C43.2944 31.4677 44.9163 30.3912 46.6925 29.813C48.4531 29.2329 50.3702 29.0982 52.2883 29.4592C53.2398 29.641 54.1783 29.9291 55.0929 30.2927C55.9916 30.6697 56.9767 31.0895 57.9541 31.3623C59.9285 31.8909 61.9785 32.2255 64 32.002C61.9925 31.7769 60.0154 31.4599 58.1654 30.7232C57.2199 30.3866 56.374 29.9559 55.4439 29.4911ZM58.4741 38.1825C57.9086 37.1862 57.3297 36.2032 56.7103 35.2473C57.0469 34.951 57.37 34.6009 57.6528 34.224C55.3234 35.9744 52.7921 36.8091 50.2068 36.8091C47.6352 36.8091 45.1039 35.9743 42.7745 34.224C43.0572 34.6009 43.3804 34.951 43.717 35.2607C43.0977 36.2167 42.5053 37.1862 41.9531 38.1825C42.6937 37.3478 43.4343 36.4995 44.1478 35.6377C44.4441 35.907 44.7538 36.1359 45.0904 36.3379C44.6595 37.3343 44.2421 38.3307 43.8652 39.354C44.4441 38.4653 45.0096 37.5497 45.5482 36.6206C45.8983 36.8091 46.2618 36.9842 46.6254 37.1323C46.356 38.1421 46.1272 39.1654 45.9117 40.1888C46.3426 39.2328 46.7465 38.2633 47.1101 37.2939C47.4871 37.4286 47.8776 37.5228 48.268 37.6036C48.1603 38.6268 48.0795 39.6636 48.0391 40.6869C48.3084 39.704 48.5508 38.7076 48.7662 37.6978C49.1702 37.7517 49.5606 37.792 49.9645 37.8055C50.0184 38.8288 50.0992 39.8521 50.2068 40.862C50.3281 39.8521 50.4089 38.8288 50.4627 37.8055C50.8666 37.792 51.2571 37.7517 51.6611 37.6844C51.8765 38.6942 52.1189 39.6906 52.3881 40.6869C52.3343 39.6636 52.267 38.6268 52.1592 37.6036C52.5497 37.5228 52.9402 37.4151 53.3171 37.2804C53.6807 38.2499 54.0847 39.2328 54.5155 40.1888C54.3001 39.152 54.0712 38.1286 53.7884 37.1188C54.1654 36.9707 54.529 36.7957 54.8656 36.5937C55.4042 37.5362 55.9697 38.4518 56.5621 39.354C56.1851 38.3307 55.7677 37.3208 55.3368 36.3244C55.66 36.1225 55.9832 35.8936 56.2794 35.6377C56.993 36.4995 57.7336 37.3478 58.4741 38.1825Z" fill="#E067C3"/>
<path d="M57.2612 33.2118C55.0563 34.4181 52.6508 34.9865 50.2123 34.9858C47.774 34.9849 45.3699 34.4168 43.1635 33.2118C44.8498 34.8264 47.5478 35.668 50.2123 35.6674C52.8766 35.6666 55.5726 34.8253 57.2612 33.2118Z" fill="#E067C3"/>
</svg>
