<svg width="20" height="20" viewBox="0 0 20 20" fill="none" xmlns="http://www.w3.org/2000/svg">
<rect width="20" height="20" rx="3.33333" fill="#E067C3"/>
<path d="M6.27268 14.1212L5.58177 13.4303L13.1933 5.83031L13.8842 6.52122L6.27268 14.1212ZM12.1569 14.2939C11.7769 14.2939 11.4296 14.2018 11.1148 14.0176C10.8039 13.8295 10.5544 13.58 10.3663 13.2691C10.1782 12.9543 10.0842 12.6051 10.0842 12.2212C10.0842 11.8451 10.1802 11.4996 10.3721 11.1849C10.564 10.8701 10.8173 10.6187 11.1321 10.4306C11.4468 10.2425 11.7884 10.1485 12.1569 10.1485C12.5369 10.1485 12.8843 10.2425 13.199 10.4306C13.5138 10.6149 13.7633 10.8643 13.9475 11.1791C14.1356 11.49 14.2297 11.8374 14.2297 12.2212C14.2297 12.6051 14.1356 12.9543 13.9475 13.2691C13.7633 13.58 13.5138 13.8295 13.199 14.0176C12.8843 14.2018 12.5369 14.2939 12.1569 14.2939ZM12.1569 13.39C12.368 13.39 12.5619 13.3363 12.7384 13.2288C12.9188 13.1213 13.0609 12.9793 13.1645 12.8027C13.272 12.6262 13.3257 12.4323 13.3257 12.2212C13.3257 12.0101 13.272 11.8163 13.1645 11.6397C13.0609 11.4593 12.9188 11.3173 12.7384 11.2136C12.5619 11.1062 12.368 11.0524 12.1569 11.0524C11.9458 11.0524 11.752 11.1062 11.5754 11.2136C11.3988 11.3173 11.2568 11.4593 11.1494 11.6397C11.0419 11.8163 10.9881 12.0101 10.9881 12.2212C10.9881 12.4323 11.0419 12.6262 11.1494 12.8027C11.2568 12.9793 11.3988 13.1213 11.5754 13.2288C11.752 13.3363 11.9458 13.39 12.1569 13.39ZM7.30905 9.80303C6.92905 9.80303 6.58167 9.71091 6.26693 9.52667C5.95218 9.33859 5.70076 9.08909 5.51268 8.77819C5.32844 8.46344 5.23632 8.11414 5.23632 7.73031C5.23632 7.35414 5.33228 7.00869 5.5242 6.69394C5.71612 6.37919 5.96945 6.12778 6.2842 5.9397C6.59895 5.75162 6.94056 5.65758 7.30905 5.65758C7.68905 5.65758 8.0345 5.75162 8.34541 5.9397C8.66016 6.12394 8.91157 6.37344 9.09965 6.68819C9.28773 6.99909 9.38177 7.34647 9.38177 7.73031C9.38177 8.11414 9.28773 8.46344 9.09965 8.77819C8.91157 9.08909 8.66016 9.33859 8.34541 9.52667C8.0345 9.71091 7.68905 9.80303 7.30905 9.80303ZM7.30905 8.89909C7.52016 8.89909 7.714 8.84536 7.89056 8.73788C8.07097 8.63041 8.21299 8.48839 8.31662 8.31182C8.4241 8.13526 8.47783 7.94142 8.47783 7.73031C8.47783 7.5192 8.4241 7.32536 8.31662 7.14879C8.21299 6.96839 8.07097 6.82637 7.89056 6.72273C7.714 6.61526 7.52016 6.56152 7.30905 6.56152C7.09794 6.56152 6.9041 6.61526 6.72753 6.72273C6.55097 6.82637 6.40895 6.96839 6.30147 7.14879C6.194 7.32536 6.14026 7.5192 6.14026 7.73031C6.14026 7.94142 6.194 8.13526 6.30147 8.31182C6.40895 8.48839 6.55097 8.63041 6.72753 8.73788C6.9041 8.84536 7.09794 8.89909 7.30905 8.89909Z" fill="white"/>
</svg>
