<svg width="165" height="27" viewBox="0 0 165 27" fill="none" xmlns="http://www.w3.org/2000/svg">
<g opacity="0.3" clip-path="url(#clip0_138_400)">
<path d="M75.9583 0H6.11808C2.73917 0 0 2.66353 0 5.94916V21.0508C0 24.3364 2.73917 27 6.11808 27H75.9583C79.3372 27 82.0765 24.3364 82.0765 21.0508V5.94916C82.0765 2.66353 79.3372 0 75.9583 0Z" fill="white"/>
<path d="M66.6029 18.7627C66.394 18.241 66.1927 17.7163 65.9753 17.1982C64.8336 14.4789 63.6901 11.7604 62.5447 9.04249C62.5088 8.95666 62.48 8.86827 62.4407 8.76045C62.526 8.75586 62.5927 8.74871 62.6588 8.74871C63.5833 8.74871 64.5071 8.75177 65.4327 8.74512C65.5895 8.74512 65.6611 8.78601 65.7164 8.93418C66.4367 10.8706 67.162 12.8054 67.8928 14.7385C67.9184 14.807 67.9463 14.8744 68.0049 15.0093C68.1761 14.5617 68.325 14.1764 68.4702 13.7902C69.0754 12.175 69.6777 10.559 70.2896 8.94643C70.3205 8.86623 70.4305 8.7579 70.5029 8.75688C71.4882 8.7441 72.4767 8.74818 73.5116 8.74818C73.3516 9.13292 73.2091 9.49162 73.0587 9.84775C71.818 12.7945 70.5766 15.741 69.3347 18.6871C69.3279 18.7117 69.3242 18.7372 69.3235 18.7627H66.6029Z" fill="black"/>
<path d="M31.7163 8.2373C32.245 8.34306 32.7833 8.42176 33.3007 8.56175C34.0173 8.75869 34.6813 9.10111 35.2477 9.56581L33.8326 11.4757C33.4192 11.2713 33.041 11.0669 32.6472 10.8968C32.0408 10.6342 31.4006 10.4982 30.731 10.5391C30.5637 10.5515 30.3993 10.5887 30.2435 10.6495C30.129 10.6882 30.0297 10.76 29.9598 10.855C29.8896 10.9499 29.8519 11.0635 29.8521 11.1798C29.8425 11.4276 29.9698 11.6248 30.1999 11.7071C30.6474 11.866 31.1067 11.9891 31.5638 12.1266C32.3239 12.3555 33.107 12.5313 33.8378 12.8256C34.8636 13.2394 35.4771 13.9865 35.5203 15.1018C35.5663 16.2883 35.1204 17.232 34.0535 17.8655C33.1603 18.3953 32.1613 18.52 31.1339 18.5001C31.0976 18.4976 31.0621 18.4871 31.0306 18.4694C30.9993 18.4516 30.9725 18.4272 30.9526 18.3979C30.6137 17.6315 30.284 16.8651 29.9534 16.0956C29.9465 16.067 29.9424 16.038 29.9406 16.0087C30.0426 16.0317 30.1315 16.0506 30.2195 16.0716C30.8202 16.2162 31.4282 16.2934 32.0333 16.1385C32.2182 16.0848 32.3831 15.9804 32.5068 15.8381C32.7256 15.5877 32.6644 15.2428 32.347 15.0717C32.0191 14.9047 31.6731 14.7728 31.3153 14.6782C30.6442 14.4871 29.9634 14.3242 29.2882 14.1541C29.1085 14.1086 29.0092 14.0008 28.9388 13.8403C28.4186 12.6473 27.8986 11.4563 27.3636 10.2698C27.2756 10.0751 27.3103 9.93775 27.4201 9.77777C28.0004 8.94649 28.8444 8.5265 29.8402 8.33949C30.0035 8.30885 30.1663 8.27256 30.3291 8.2373H31.7163Z" fill="black"/>
<path d="M14.1232 14.9881L15.7608 10.6215C15.98 10.0375 16.1934 9.45145 16.4206 8.87103C16.4495 8.79848 16.5562 8.7055 16.6276 8.70497C17.6135 8.69375 18.6014 8.69732 19.6288 8.69732C19.592 8.79695 19.5668 8.87358 19.536 8.94768C18.1956 12.1326 16.8564 15.3174 15.5181 18.5023C15.452 18.6602 15.3773 18.7189 15.1943 18.7159C14.4571 18.7047 13.7194 18.7047 12.981 18.7159C12.8109 18.7159 12.7341 18.6648 12.6717 18.5156C11.3295 15.3136 9.98441 12.1118 8.63626 8.90988C8.61065 8.8506 8.5925 8.78622 8.56531 8.70806H11.7659L14.1232 14.9881Z" fill="black"/>
<path d="M29.5363 18.6608C28.5464 18.6608 27.5956 18.6644 26.6451 18.6541C26.5978 18.6485 26.5525 18.6324 26.5129 18.6071C26.4731 18.5816 26.4402 18.5478 26.4169 18.508C25.9001 17.2878 25.3907 16.0653 24.8885 14.8404C24.5151 13.9233 24.1541 13.0011 23.7864 12.0813C23.7727 12.0456 23.7496 12.0134 23.7087 11.9388C23.4569 12.5443 23.2189 13.1069 22.9884 13.6719C22.3408 15.2614 21.6991 16.8531 21.0456 18.44C21.0094 18.5295 20.8926 18.65 20.8114 18.6511C19.8694 18.6658 18.9273 18.6608 17.9432 18.6608C18.0664 18.368 18.1762 18.0952 18.2952 17.8264C19.6167 14.8371 20.9374 11.8472 22.2571 8.85679C22.3264 8.69892 22.3989 8.63913 22.5814 8.64168C23.3549 8.65242 24.1285 8.65089 24.9013 8.64168C25.0655 8.64168 25.1526 8.68104 25.2212 8.83279C26.6307 12.0347 28.0436 15.2366 29.4601 18.4385C29.4841 18.4994 29.5022 18.5642 29.5363 18.6608Z" fill="black"/>
<path d="M58.2574 14.7402V16.3165H58.5702C60.214 16.3165 61.8587 16.3205 63.5028 16.3129C63.7205 16.3129 63.827 16.3931 63.8291 16.5846C63.8355 17.2642 63.8291 17.9443 63.8291 18.6412H55.4078C55.4026 18.5595 55.3923 18.4777 55.3923 18.396C55.3923 17.2893 55.3827 16.182 55.3994 15.0748C55.4055 14.8663 55.4661 14.6626 55.5754 14.4821C56.7141 12.6279 57.8691 10.7824 59.0133 8.93075C59.1206 8.75755 59.2417 8.68192 59.4551 8.69725C59.7649 8.71666 60.077 8.69725 60.388 8.70696C60.4497 8.70696 60.5453 8.75193 60.5661 8.79943C60.8819 9.52757 61.1881 10.2597 61.5125 11.0287H58.2697V12.5717H58.5594C59.6616 12.5717 60.7635 12.5768 61.8667 12.5677C62.0801 12.5677 62.1969 12.6187 62.277 12.8231C62.5223 13.4511 62.7933 14.0693 63.077 14.7402H58.2574Z" fill="black"/>
<path d="M57.2707 8.71497C56.8145 9.43024 56.3799 10.1129 55.9461 10.7945C55.1092 12.1086 54.2689 13.4213 53.4391 14.74C53.3673 14.8652 53.3307 15.006 53.3323 15.1487C53.3243 16.3065 53.3275 17.4643 53.3275 18.6415H50.44V18.381C50.44 17.3167 50.4453 16.2524 50.4343 15.1881C50.432 15.0294 50.3881 14.8738 50.306 14.7359C49.1065 12.8256 47.9021 10.919 46.6927 9.0159C46.634 8.92343 46.5828 8.82787 46.5016 8.68839H46.8549C47.7169 8.68839 48.5794 8.69709 49.4414 8.68327C49.6847 8.67918 49.8229 8.75226 49.9406 8.95766C50.5273 9.97958 51.1267 10.9918 51.723 12.007C51.7763 12.0944 51.8332 12.1776 51.9144 12.3023C52.1193 11.9595 52.3038 11.6524 52.4867 11.3443C52.9738 10.5237 53.4567 9.70059 53.9515 8.88458C54.005 8.79927 54.1276 8.70117 54.2184 8.69964C55.1876 8.68737 56.1574 8.69349 57.1262 8.69709C57.1747 8.70068 57.2227 8.70665 57.2707 8.71497Z" fill="black"/>
<path d="M43.5519 16.2988H48.5662V18.7003H40.6914V8.76758H43.5519V16.2988Z" fill="black"/>
<path d="M39.2273 18.651H36.3729V8.70752H39.2273V18.651Z" fill="black"/>
<path d="M93.0512 9.39371L94.2523 12.0373L95.8468 11.7082L93.0512 7.10044L90.2563 11.7082L91.8503 12.0373L93.0512 9.39371ZM94.8857 12.3558V13.3114H96.436V11.103H89.6666V13.3114H91.2715V12.3558H94.8857ZM102.661 8.85225L102.715 7.10044L97.6493 10.9756L97.5946 12.7274L102.661 8.85225ZM99.1881 7.47203H97.5946V12.7274L99.1881 11.2304V7.47203ZM102.715 7.10044L101.132 8.59745V12.3558H102.715V7.10044ZM106.36 9.91395C107.102 9.94221 107.648 9.85023 107.997 9.63789C108.354 9.41852 108.532 9.12828 108.532 8.7673C108.532 8.49834 108.441 8.26124 108.259 8.05598C108.085 7.84364 107.841 7.67729 107.528 7.55698C107.215 7.42957 106.858 7.36587 106.457 7.36587C106.028 7.36587 105.654 7.4402 105.334 7.58882C105.02 7.73039 104.773 7.93212 104.591 8.194C104.416 8.4488 104.328 8.74962 104.328 9.09643H105.825C105.832 8.98319 105.861 8.88409 105.911 8.79916C105.962 8.71423 106.036 8.64699 106.13 8.59745C106.232 8.54788 106.344 8.52312 106.469 8.52312C106.636 8.52312 106.771 8.56559 106.872 8.65052C106.974 8.72839 107.026 8.83455 107.026 8.96904C107.026 9.1035 106.971 9.21678 106.862 9.30877C106.759 9.39371 106.592 9.43618 106.36 9.43618V9.91395ZM106.436 12.462C106.88 12.462 107.276 12.3983 107.627 12.2709C107.976 12.1435 108.249 11.9666 108.445 11.7401C108.649 11.5065 108.75 11.2375 108.75 10.9332C108.75 10.4943 108.543 10.1546 108.128 9.91395C107.713 9.66618 107.124 9.56002 106.36 9.59543V10.2006C106.549 10.2006 106.705 10.2254 106.829 10.2749C106.96 10.3174 107.054 10.3811 107.113 10.466C107.178 10.5439 107.211 10.6429 107.211 10.7633C107.211 10.8837 107.178 10.9862 107.113 11.0712C107.048 11.1491 106.956 11.2128 106.84 11.2623C106.724 11.3048 106.585 11.326 106.425 11.326C106.214 11.326 106.039 11.2729 105.901 11.1667C105.763 11.0535 105.664 10.8943 105.607 10.689H104.045C104.103 11.2269 104.336 11.6587 104.743 11.9842C105.158 12.3027 105.722 12.462 106.436 12.462ZM111.165 10.9013C111.165 10.7669 111.198 10.6536 111.263 10.5616C111.336 10.4696 111.438 10.3987 111.569 10.3492C111.708 10.2926 111.871 10.2643 112.061 10.2643C112.344 10.2643 112.584 10.2997 112.781 10.3705C112.985 10.4342 113.182 10.5333 113.371 10.6678V9.91395C113.298 9.83605 113.174 9.75825 112.999 9.68038C112.832 9.59543 112.632 9.52816 112.399 9.47864C112.174 9.422 111.933 9.39371 111.679 9.39371C111.242 9.39371 110.86 9.45741 110.532 9.58482C110.204 9.71221 109.949 9.89272 109.768 10.1263C109.593 10.3599 109.505 10.6395 109.505 10.965C109.505 11.2835 109.581 11.556 109.735 11.7825C109.895 12.0019 110.113 12.1718 110.39 12.2921C110.667 12.4054 110.979 12.462 111.328 12.462C111.679 12.462 111.991 12.4054 112.268 12.2921C112.552 12.1718 112.774 12.0019 112.934 11.7825C113.102 11.556 113.185 11.2871 113.185 10.9756L113.01 10.3811C113.01 10.6429 112.96 10.8482 112.857 10.9969C112.755 11.1455 112.617 11.2517 112.443 11.3154C112.275 11.3791 112.09 11.4109 111.886 11.4109C111.755 11.4109 111.634 11.3933 111.525 11.3578C111.416 11.3154 111.328 11.2587 111.263 11.188C111.198 11.1101 111.165 11.0145 111.165 10.9013ZM110.521 8.97964C110.601 8.9301 110.721 8.87348 110.881 8.80979C111.041 8.73899 111.227 8.67882 111.438 8.62928C111.656 8.57974 111.886 8.55496 112.126 8.55496C112.402 8.55496 112.617 8.61868 112.77 8.74607C112.93 8.8664 113.01 9.02918 113.01 9.23447V12.3558H114.594V8.91594C114.594 8.57619 114.492 8.28955 114.288 8.05598C114.091 7.82239 113.814 7.64546 113.457 7.52512C113.108 7.39773 112.708 7.33402 112.256 7.33402C111.806 7.33402 111.38 7.39418 110.979 7.51452C110.587 7.63483 110.248 7.76224 109.963 7.89671L110.521 8.97964ZM120.915 8.85225L120.969 7.10044L115.903 10.9756L115.848 12.7274L120.915 8.85225ZM117.443 7.47203H115.848V12.7274L117.443 11.2304V7.47203ZM120.969 7.10044L119.386 8.59745V12.3558H120.969V7.10044ZM116.7 4.97705C116.7 5.26018 116.77 5.52206 116.907 5.76271C117.045 5.99628 117.25 6.18384 117.519 6.32541C117.788 6.4599 118.112 6.52714 118.49 6.52714C118.876 6.52714 119.2 6.4599 119.463 6.32541C119.732 6.18384 119.936 5.99628 120.073 5.76271C120.212 5.52206 120.281 5.26018 120.281 4.97705H119.2C119.2 5.09739 119.172 5.20709 119.113 5.30618C119.055 5.3982 118.971 5.4725 118.862 5.52914C118.753 5.57868 118.629 5.60346 118.49 5.60346C118.345 5.60346 118.217 5.57868 118.108 5.52914C118.007 5.4725 117.926 5.3982 117.868 5.30618C117.81 5.20709 117.781 5.09739 117.781 4.97705H116.7ZM122.801 10.3811H126.863V9.18138H122.801V10.3811ZM126.121 7.47203V12.3558H127.704V7.47203H126.121ZM122.288 7.47203V12.3558H123.883V7.47203H122.288ZM129.638 10.2537H134.224C134.239 10.1687 134.247 10.0909 134.247 10.0201C134.247 9.94221 134.247 9.88209 134.247 9.83962C134.247 9.32296 134.14 8.88056 133.93 8.5125C133.726 8.14446 133.42 7.86133 133.013 7.66314C132.612 7.46496 132.12 7.36587 131.539 7.36587C130.993 7.36587 130.523 7.4508 130.13 7.62068C129.745 7.79055 129.435 8.02767 129.202 8.33202C128.977 8.63636 128.827 8.99027 128.755 9.39371C128.74 9.47864 128.729 9.56359 128.722 9.64852C128.714 9.73344 128.71 9.82196 128.71 9.91395C128.71 10.4023 128.82 10.8412 129.038 11.2304C129.264 11.6127 129.588 11.9135 130.01 12.1329C130.439 12.3523 130.956 12.462 131.56 12.462C132.048 12.462 132.459 12.4054 132.794 12.2921C133.136 12.1718 133.424 12.0055 133.657 11.7931C133.89 11.5737 134.089 11.3154 134.257 11.0181L132.783 10.6678C132.703 10.8022 132.605 10.919 132.488 11.0181C132.372 11.1101 132.233 11.1809 132.073 11.2304C131.921 11.28 131.742 11.3048 131.539 11.3048C131.32 11.3048 131.124 11.2587 130.949 11.1667C130.774 11.0747 130.632 10.9261 130.523 10.7208C130.422 10.5155 130.371 10.2466 130.371 9.91395L130.392 9.65914C130.392 9.39729 130.439 9.1778 130.534 9.00087C130.628 8.81684 130.756 8.67882 130.917 8.58682C131.083 8.48772 131.28 8.43818 131.506 8.43818C131.702 8.43818 131.866 8.47711 131.997 8.55496C132.136 8.62576 132.241 8.72839 132.313 8.86285C132.393 8.99734 132.448 9.16371 132.477 9.36186H129.638V10.2537ZM136.924 14.6916V7.47203H135.275V14.6916H136.924ZM141.028 9.91395C141.028 9.34062 140.913 8.86285 140.679 8.48066C140.454 8.09137 140.159 7.79763 139.795 7.59945C139.439 7.40126 139.053 7.30218 138.638 7.30218C138.201 7.30218 137.823 7.41189 137.502 7.6313C137.189 7.84364 136.949 8.14446 136.781 8.53373C136.614 8.92302 136.53 9.38309 136.53 9.91395C136.53 10.4377 136.614 10.8977 136.781 11.2941C136.949 11.6834 137.189 11.9878 137.502 12.2072C137.823 12.4195 138.201 12.5257 138.638 12.5257C139.053 12.5257 139.439 12.4266 139.795 12.2284C140.159 12.0303 140.454 11.7365 140.679 11.3472C140.913 10.958 141.028 10.4802 141.028 9.91395ZM139.293 9.91395C139.293 10.1687 139.238 10.3847 139.129 10.5616C139.02 10.7385 138.874 10.873 138.692 10.965C138.511 11.057 138.31 11.103 138.092 11.103C137.903 11.103 137.717 11.0606 137.534 10.9756C137.36 10.8837 137.215 10.7491 137.098 10.5722C136.982 10.3953 136.924 10.1758 136.924 9.91395C136.924 9.65209 136.982 9.43261 137.098 9.2557C137.215 9.07874 137.36 8.9478 137.534 8.86285C137.717 8.77085 137.903 8.72484 138.092 8.72484C138.31 8.72484 138.511 8.77085 138.692 8.86285C138.874 8.95488 139.02 9.08937 139.129 9.2663C139.238 9.44323 139.293 9.65912 139.293 9.91395ZM143.411 9.91395C143.411 9.67332 143.469 9.45741 143.586 9.2663C143.702 9.07519 143.863 8.92302 144.066 8.80979C144.278 8.69653 144.503 8.63991 144.744 8.63991C144.925 8.63991 145.111 8.66822 145.3 8.72484C145.489 8.78148 145.664 8.86285 145.824 8.96904C145.992 9.07519 146.126 9.20618 146.228 9.36186V7.79055C146.054 7.67022 145.835 7.57114 145.573 7.49326C145.311 7.40834 144.991 7.36587 144.612 7.36587C144.059 7.36587 143.56 7.47203 143.116 7.68437C142.679 7.89671 142.334 8.194 142.079 8.57619C141.831 8.95133 141.708 9.39729 141.708 9.91395C141.708 10.4236 141.831 10.8695 142.079 11.2517C142.334 11.6339 142.679 11.9312 143.116 12.1435C143.56 12.3558 144.059 12.462 144.612 12.462C144.991 12.462 145.311 12.4231 145.573 12.3452C145.835 12.2603 146.054 12.1506 146.228 12.0161V10.4554C146.126 10.6111 145.995 10.7421 145.835 10.8482C145.682 10.9544 145.512 11.0393 145.321 11.103C145.14 11.1597 144.947 11.188 144.744 11.188C144.503 11.188 144.278 11.1349 144.066 11.0287C143.863 10.9226 143.702 10.7775 143.586 10.5934C143.469 10.4023 143.411 10.1758 143.411 9.91395ZM147.409 7.47203V12.3558H148.992V7.47203H147.409ZM150.815 7.47203L148.665 9.48927L151.067 12.3558H152.999L150.64 9.48927L152.781 7.47203H150.815ZM154.998 10.9013C154.998 10.7669 155.031 10.6536 155.097 10.5616C155.17 10.4696 155.271 10.3987 155.403 10.3492C155.541 10.2926 155.705 10.2643 155.894 10.2643C156.178 10.2643 156.418 10.2997 156.614 10.3705C156.819 10.4342 157.015 10.5333 157.205 10.6678V9.91395C157.131 9.83605 157.008 9.75825 156.833 9.68038C156.665 9.59543 156.466 9.52816 156.232 9.47864C156.006 9.422 155.766 9.39371 155.512 9.39371C155.075 9.39371 154.693 9.45741 154.366 9.58482C154.038 9.71221 153.783 9.89272 153.602 10.1263C153.426 10.3599 153.339 10.6395 153.339 10.965C153.339 11.2835 153.415 11.556 153.569 11.7825C153.728 12.0019 153.947 12.1718 154.224 12.2921C154.5 12.4054 154.813 12.462 155.162 12.462C155.512 12.462 155.825 12.4054 156.101 12.2921C156.386 12.1718 156.607 12.0019 156.768 11.7825C156.934 11.556 157.018 11.2871 157.018 10.9756L156.844 10.3811C156.844 10.6429 156.793 10.8482 156.691 10.9969C156.589 11.1455 156.451 11.2517 156.276 11.3154C156.109 11.3791 155.924 11.4109 155.719 11.4109C155.588 11.4109 155.468 11.3933 155.359 11.3578C155.249 11.3154 155.162 11.2587 155.097 11.188C155.031 11.1101 154.998 11.0145 154.998 10.9013ZM154.355 8.97964C154.435 8.9301 154.555 8.87348 154.715 8.80979C154.875 8.73899 155.06 8.67882 155.271 8.62928C155.49 8.57974 155.719 8.55496 155.959 8.55496C156.236 8.55496 156.451 8.61868 156.604 8.74607C156.764 8.8664 156.844 9.02918 156.844 9.23447V12.3558H158.427V8.91594C158.427 8.57619 158.326 8.28955 158.121 8.05598C157.925 7.82239 157.648 7.64546 157.291 7.52512C156.942 7.39773 156.542 7.33402 156.09 7.33402C155.639 7.33402 155.214 7.39418 154.813 7.51452C154.42 7.63483 154.082 7.76224 153.797 7.89671L154.355 8.97964ZM161.167 12.3558L162.542 10.1369H160.982L159.463 12.3558H161.167ZM164.519 12.3558V7.47203H162.87V12.3558H164.519ZM163.438 9.53173H162.106C161.967 9.53173 161.848 9.5211 161.746 9.49987C161.651 9.47159 161.579 9.42912 161.528 9.37248C161.476 9.30876 161.45 9.23089 161.45 9.13891C161.45 9.03981 161.476 8.96196 161.528 8.90534C161.579 8.8487 161.651 8.80979 161.746 8.78853C161.848 8.76022 161.967 8.74607 162.106 8.74607H163.438V7.47203H161.877C161.534 7.47203 161.203 7.52512 160.883 7.6313C160.57 7.73039 160.315 7.88963 160.119 8.10905C159.929 8.32847 159.835 8.62576 159.835 9.00087C159.835 9.36891 159.929 9.67332 160.119 9.91395C160.315 10.1475 160.57 10.3209 160.883 10.4342C161.203 10.5474 161.534 10.604 161.877 10.604H163.438V9.53173ZM91.2608 19.4326C91.2608 19.192 91.3189 18.9761 91.4355 18.7849C91.5519 18.5938 91.7119 18.4416 91.9159 18.3284C92.1269 18.2152 92.3526 18.1586 92.5927 18.1586C92.7747 18.1586 92.9602 18.1868 93.1495 18.2435C93.3388 18.3001 93.5135 18.3815 93.6736 18.4877C93.8412 18.5938 93.9756 18.7248 94.0776 18.8805V17.3092C93.9029 17.1888 93.6846 17.0898 93.4225 17.0119C93.1605 16.927 92.8401 16.8845 92.4617 16.8845C91.9086 16.8845 91.4099 16.9907 90.9658 17.203C90.5291 17.4154 90.1833 17.7126 89.9286 18.0948C89.6812 18.47 89.5575 18.9159 89.5575 19.4326C89.5575 19.9422 89.6812 20.3881 89.9286 20.7703C90.1833 21.1525 90.5291 21.4498 90.9658 21.6621C91.4099 21.8745 91.9086 21.9806 92.4617 21.9806C92.8401 21.9806 93.1605 21.9417 93.4225 21.8639C93.6846 21.7789 93.9029 21.6692 94.0776 21.5347V19.9741C93.9756 20.1297 93.8446 20.2607 93.6846 20.3669C93.5318 20.4731 93.3608 20.558 93.1714 20.6217C92.9894 20.6783 92.7964 20.7066 92.5927 20.7066C92.3526 20.7066 92.1269 20.6535 91.9159 20.5474C91.7119 20.4412 91.5519 20.2961 91.4355 20.1121C91.3189 19.921 91.2608 19.6944 91.2608 19.4326ZM94.6797 16.9907V18.3178H98.2065V16.9907H94.6797ZM95.651 17.203V21.8745H97.2342V17.203H95.651ZM104.378 16.9907H102.686L101.081 20.8977L101.933 20.9083L100.305 16.9907H98.4935L100.666 21.4817L99.4433 24.2103H101.103L104.378 16.9907ZM107.456 18.9124L108.657 21.556L110.252 21.2268L107.456 16.6191L104.662 21.2268L106.255 21.556L107.456 18.9124ZM109.291 21.8745V22.8301H110.841V20.6217H104.071V22.8301H105.676V21.8745H109.291ZM117.065 18.3709L117.12 16.6191L112.054 20.4943L111.999 22.2462L117.065 18.3709ZM113.593 16.9907H111.999V22.2462L113.593 20.7491V16.9907ZM117.12 16.6191L115.537 18.1161V21.8745H117.12V16.6191ZM119.946 21.8745L121.322 19.6555H119.76L118.243 21.8745H119.946ZM123.297 21.8745V16.9907H121.649V21.8745H123.297ZM122.217 19.0504H120.885C120.747 19.0504 120.626 19.0397 120.524 19.0185C120.43 18.9903 120.357 18.9478 120.306 18.8911C120.255 18.8274 120.23 18.7495 120.23 18.6576C120.23 18.5584 120.255 18.4806 120.306 18.424C120.357 18.3673 120.43 18.3284 120.524 18.3072C120.626 18.2789 120.747 18.2647 120.885 18.2647H122.217V16.9907H120.655C120.313 16.9907 119.982 17.0438 119.662 17.1499C119.349 17.2491 119.094 17.4083 118.898 17.6277C118.709 17.8471 118.614 18.1444 118.614 18.5195C118.614 18.8876 118.709 19.192 118.898 19.4326C119.094 19.6662 119.349 19.8396 119.662 19.9528C119.982 20.066 120.313 20.1227 120.655 20.1227H122.217V19.0504Z" fill="white"/>
</g>
<defs>
<clipPath id="clip0_138_400">
<rect width="165" height="27" fill="white"/>
</clipPath>
</defs>
</svg>
