<svg width="33" height="33" viewBox="0 0 33 33" fill="none" xmlns="http://www.w3.org/2000/svg">
<path d="M20.7253 2.75H12.2891C4.5833 2.75 2.75 4.5833 2.75 12.2747V20.7109C2.75 28.4166 4.56904 30.25 12.2747 30.25H20.7109C28.4167 30.25 30.25 28.431 30.25 20.7252V12.2891C30.25 4.5833 28.431 2.75 20.7253 2.75ZM24.9505 22.3724H22.9453C22.1862 22.3724 21.957 21.7565 20.5964 20.3958C19.4075 19.25 18.9062 19.1067 18.6055 19.1067C18.1901 19.1067 18.0755 19.2213 18.0755 19.7942V21.5989C18.0755 22.0859 17.918 22.3724 16.6433 22.3724C15.4063 22.2893 14.2068 21.9135 13.1435 21.276C12.0802 20.6385 11.1835 19.7576 10.5273 18.7057C8.96961 16.7668 7.88577 14.4912 7.36201 12.0599C7.36201 11.7591 7.47656 11.4869 8.04951 11.4869H10.0547C10.5703 11.4869 10.7565 11.7161 10.957 12.2461C11.931 15.1106 13.5925 17.6028 14.2656 17.6028C14.5234 17.6028 14.638 17.4883 14.638 16.8438V13.8932C14.5521 12.5469 13.8359 12.4322 13.8359 11.9453C13.8454 11.8168 13.9045 11.6971 14.0008 11.6115C14.097 11.5259 14.2229 11.4812 14.3516 11.4869H17.5026C17.9323 11.4869 18.0755 11.7018 18.0755 12.2174V16.1992C18.0755 16.6289 18.2617 16.7721 18.3906 16.7721C18.6484 16.7721 18.8489 16.6289 19.3216 16.1562C20.3373 14.9176 21.1672 13.5377 21.7852 12.0599C21.8482 11.882 21.9678 11.7298 22.1256 11.6263C22.2833 11.5228 22.4707 11.4739 22.6589 11.4869H24.6641C25.2656 11.4869 25.3945 11.7877 25.2656 12.2174C24.536 13.8513 23.6333 15.4023 22.573 16.8438C22.3581 17.1731 22.2722 17.345 22.573 17.7317C22.7734 18.0325 23.4753 18.6197 23.948 19.1783C24.6354 19.8641 25.2063 20.6575 25.638 21.5273C25.8099 22.0859 25.5234 22.3724 24.9505 22.3724Z" fill="white" fill-opacity="0.2"/>
</svg>
